<svg width="20" height="20" xmlns="http://www.w3.org/2000/svg"><path d="M5.379 12.734L9.973 17.8l4.547-5.01a6.596 6.596 0 0 0 1.991-4.735c0-3.64-2.925-6.59-6.533-6.59-3.609 0-6.534 2.95-6.534 6.59 0 1.83.74 3.486 1.935 4.68zm-1.01 1.064A8.077 8.077 0 0 1 2 8.068C2 3.612 5.582 0 10 0s8 3.612 8 8.068a8.077 8.077 0 0 1-2.438 5.799L9.994 20 4.37 13.798zM10 12.55c-2.406 0-4.357-1.967-4.357-4.394 0-2.426 1.95-4.393 4.357-4.393 2.406 0 4.357 1.967 4.357 4.393 0 2.427-1.95 4.394-4.357 4.394zm0-1.464c1.604 0 2.905-1.312 2.905-2.93 0-1.617-1.3-2.929-2.905-2.929-1.604 0-2.905 1.312-2.905 2.93 0 1.617 1.3 2.929 2.905 2.929z"/></svg>