<svg width="20" height="20" xmlns="http://www.w3.org/2000/svg"><path d="M12.464 12.928c-1.737 2.085-3.533 3.36-6.254 3.36-2.723 0-4.519-1.68-4.287-3.708.116-1.331 1.043-3.533 5.039-3.185 2.085.173 3.07.579 4.808 1.158.463-.81.81-1.738 1.1-2.664H5.224v-.753H8.99V5.805H4.413v-.87H8.99V2.966s.058-.29.406-.29h1.91v2.26h4.867v.81h-4.924v1.332h3.997a14.142 14.142 0 0 1-1.622 4.055c.984.347 4.981 1.563 6.14 1.911V2.908A2.905 2.905 0 0 0 16.866.01H2.908A2.905 2.905 0 0 0 .01 2.908v14.016a2.905 2.905 0 0 0 2.897 2.897h14.016a2.905 2.905 0 0 0 2.897-2.897v-.694c-.985-.464-5.387-2.375-7.357-3.303v.001z"/><path d="M2.734 12.406c-.174.753.29 2.549 3.185 2.549 1.738 0 3.476-1.1 4.866-2.896-1.97-.984-3.591-1.448-5.445-1.448-1.621.058-2.433 1.043-2.606 1.795z"/></svg>