<svg width="20" height="20" xmlns="http://www.w3.org/2000/svg"><path d="M3.877.856l.016-.009C6.185-.343 8.277.256 9.971 2.6c1.52 2.724 2.359 3.337 3.671 3.36h.32c1.406-.006 2.18.185 3.253 1.063 3.948 3.103 2.54 8.611-2.055 11.083-4.94 2.658-13.143-.698-14.536-7.286C-.394 6.006.673 2.617 3.877.856zM2.091 10.51c1.179 5.573 8.27 8.475 12.359 6.275 3.74-2.012 4.82-6.239 1.826-8.592-.764-.626-1.218-.738-2.308-.733l-.35-.001c-1.908-.032-3.197-.974-4.91-4.053-1.223-1.688-2.514-2.06-4.116-1.231-2.542 1.402-3.393 4.113-2.5 8.335zm3.92-3.497a.75.75 0 0 1 1.347-.658c1.07 2.189 2.736 3.246 5.106 3.246a.75.75 0 0 1 0 1.5c-2.947 0-5.134-1.387-6.454-4.088z"/></svg>