<svg width="20" height="20" xmlns="http://www.w3.org/2000/svg"><path d="M6.84 19.267a183.88 183.88 0 0 0-3.007.03c-1.515.034-2.51-.794-2.996-2.094a5.215 5.215 0 0 1-.325-1.857v-.018l.02-.782 2.346.009V3.11A2.995 2.995 0 0 1 5.887.116h9.981a3.006 3.006 0 0 1 3.01 2.994v12.173a3.995 3.995 0 0 1-3.424 3.952v.034h-.018a2.83 2.83 0 0 1-.24-.005c.076-.006.152-.015.228-.025v.03h-.307a4.063 4.063 0 0 1-.236.007h-8.04v-.01zm5.786-1.6h1.915a1694.142 1694.142 0 0 0-1.917-.004l.002.004zm2.703 0a2.005 2.005 0 0 0 1.964-2.003V2.923c0-.668-.54-1.198-1.205-1.198H5.697c-.67 0-1.204.536-1.204 1.198v11.638l9.199.035v.797c0 1.106.33 1.714.874 2.035a1.787 1.787 0 0 0 .763.239zM2.336 16.643c.266.712.698 1.071 1.46 1.054.973-.023 2.89-.034 5.483-.036 1.075 0 2.207 0 3.345.002a4.03 4.03 0 0 1-.48-1.473l-9.95-.038c.035.162.081.328.142.491zM6.478 4.265c0-.441.355-.8.796-.8h7.207c.44 0 .797.355.797.8 0 .442-.356.8-.797.8H7.274a.796.796 0 0 1-.796-.8zm0 3.374c0-.442.362-.8.797-.8h4.805c.44 0 .798.355.798.8 0 .441-.363.8-.798.8H7.275a.797.797 0 0 1-.797-.8z"/><path d="M6.478 11.204c0-.55.454-.996.999-.996h4.054c.552 0 1 .438 1 .996v1.156c0 .55-.456.996-1 .996H7.477c-.552 0-1-.437-1-.996v-1.156z" opacity=".536"/></svg>