<svg width="20" height="20" xmlns="http://www.w3.org/2000/svg"><path d="M14.52 12.55H5c-.69 0-1.25.56-1.25 1.25V17c0 .69.56 1.25 1.25 1.25h10.4c.69 0 1.25-.56 1.25-1.25v-3.2c0-.69-.56-1.25-1.25-1.25h-.88zm-9.39-1.5V9.48a2.75 2.75 0 0 1 2.75-2.75h4.64a2.75 2.75 0 0 1 2.75 2.75v1.57h.13a2.75 2.75 0 0 1 2.75 2.75V17a2.75 2.75 0 0 1-2.75 2.75H5A2.75 2.75 0 0 1 2.25 17v-3.2A2.75 2.75 0 0 1 5 11.05h.13zm1.5 0h7.14V9.48c0-.69-.56-1.25-1.25-1.25H7.88c-.69 0-1.25.56-1.25 1.25v1.57zM8.335 1A.75.75 0 0 1 9.423.33c1.34.677 2.227 1.363 2.661 2.111.75 1.294.054 2.875-1.353 3.353-1.494.507-3.117-.846-2.638-2.338.156-.489.242-1.316.242-2.456zM9.52 3.914c-.08.246.336.592.728.46.546-.186.791-.743.538-1.18-.162-.279-.492-.591-.992-.924-.048.672-.138 1.218-.274 1.644zM5.59 16.077a.75.75 0 0 1-.862-1.228c.877-.616 1.952-.919 3.206-.919.821 0 1.368.143 2.062.459l.275.126c.325.145.522.198.796.198.067 0 .137-.004.21-.011.326-.033.55-.094 1.334-.345.947-.303 1.504-.427 2.211-.427a.75.75 0 1 1 0 1.5c-.51 0-.946.097-1.754.356-.897.287-1.168.36-1.641.409a3.594 3.594 0 0 1-.36.018c-.516 0-.907-.105-1.408-.329-.064-.028-.275-.126-.285-.13-.513-.234-.858-.324-1.44-.324-.96 0-1.734.219-2.344.647z"/></svg>