<svg width="20" height="20" xmlns="http://www.w3.org/2000/svg"><path d="M18.246 11.296H2.08v1.44c0 .277.226.504.497.504h6.198a.829.829 0 0 1 .317 0h2.144a.829.829 0 0 1 .316 0h6.198c.27 0 .497-.227.497-.505v-1.439zm0-1.13V2.323a.504.504 0 0 0-.497-.505H2.576a.504.504 0 0 0-.497.505v7.841h16.167zm-7.534 4.574H9.614l-.768 2.867h2.634l-.768-2.867zm1.725 0l.768 2.867h.81c.459 0 .83.37.83.833a.83.83 0 0 1-.83.833H6.509a.83.83 0 0 1-.83-.833c0-.46.371-.833.83-.833h.612l.768-2.867H2.576A2.004 2.004 0 0 1 .58 12.735V2.325c0-1.108.9-2.006 1.997-2.006H17.75c1.103 0 1.997.902 1.997 2.005v10.411a2.004 2.004 0 0 1-1.997 2.005h-5.312z"/><rect opacity=".487" x="4.074" y="3.363" width="7.823" height="4.167" rx="2"/></svg>