<svg width="20" height="20" xmlns="http://www.w3.org/2000/svg"><path d="M14.516 4.209V9.15h3.805V4.209h.64a1 1 0 0 1 .999.998v4.67a.996.996 0 0 1-1 .999h-1.708v7.574a.832.832 0 1 1-1.667 0v-7.574h-1.708a1 1 0 0 1-1-.998V5.207a.996.996 0 0 1 1-.998h.639zm-2.477 10.544l.768 2.866h.81c.459 0 .83.37.83.834a.83.83 0 0 1-.83.833H6.11a.83.83 0 0 1-.83-.833c0-.46.371-.834.83-.834h.612l.768-2.866H2.178a2.004 2.004 0 0 1-1.997-2.005V2.337c0-1.108.9-2.005 1.997-2.005h15.173c1.103 0 1.997.902 1.997 2.005v.55h-1.655v-.891H1.836v8.182h9.996v1.13H1.836v1.78h12.496v1.665H12.04zm-1.725 0H9.216l-.768 2.866h2.634l-.768-2.866z"/><rect opacity=".46" x="3.676" y="3.376" width="7.114" height="4.167" rx="2"/></svg>