<svg width="21" height="20" xmlns="http://www.w3.org/2000/svg"><path d="M5.378 11.467c0-.553.457-1 1-1h3.82a1 1 0 0 1 1 1v2.506c0 .553-.456 1-1 1h-3.82a1 1 0 0 1-1-1v-2.506z" opacity=".52"/><path d="M5.378 4.836c0-.425.343-.77.766-.77h6.93c.423 0 .766.342.766.77 0 .425-.342.77-.766.77h-6.93a.766.766 0 0 1-.766-.77zm0 3.328a.77.77 0 0 1 .761-.77h4.298c.42 0 .761.342.761.77a.768.768 0 0 1-.76.769h-4.3a.763.763 0 0 1-.76-.77zm11.44 1.72l-1.505 1.493V3.054a.998.998 0 0 0-.992-1.002H4.897a.999.999 0 0 0-.992 1.002v14.207a.998.998 0 0 0 .992 1.002h9.424a.999.999 0 0 0 .992-1.002v-1.21l1.505-1.494v2.211a3.004 3.004 0 0 1-3.005 3.005H5.405A3.01 3.01 0 0 1 2.4 16.768V3.548A3.004 3.004 0 0 1 5.405.541h8.408a3.01 3.01 0 0 1 3.005 3.005v6.337zm-4.9 6.14l6.23-6.208a.774.774 0 0 1 1.081-.003.76.76 0 0 1-.004 1.08l-6.23 6.208-1.541.513.463-1.59z"/></svg>