<svg width="20" height="20" xmlns="http://www.w3.org/2000/svg"><path d="M6.673 13.814c2.348 2.07 6.732 3.375 8.999 2.4.832-.357.952-.57.815-.88-.15-.341-.555-.767-1.235-1.323-.173-.143-.81-.645-.743-.592-1.288-1.028-1.83-1.04-2.288-.01-.577 1.3-1.804 1.434-3.158.653-1.01-.583-2.196-1.7-3.43-3.182-1.645-1.973-1.79-3.332-.66-4.06a2.3 2.3 0 0 1 .357-.186c-.01.006.433-.23.561-.322.383-.276.464-.541.136-1.139-.52-.948-1.21-1.878-1.809-2.37-.556-.458-.738-.453-.978.011-.914 1.764-1.01 3.646-.377 5.48.7 2.024 1.893 3.83 3.81 5.52zM1.946 2.142C2.68.727 3.948.693 5.143 1.675c.766.63 1.56 1.699 2.161 2.796.707 1.288.385 2.341-.56 3.024-.227.165-.726.43-.636.372-.063.04-.309.156-.347.18-.064.042-.065.043-.054.142.036.34.353.927 1.044 1.756 1.134 1.361 2.208 2.373 3.04 2.853.695.401.94.374 1.098.02.94-2.117 2.599-2.08 4.528-.54-.075-.06.572.451.758.603.85.696 1.374 1.247 1.646 1.864.504 1.146-.066 2.162-1.574 2.81-2.865 1.232-7.808-.24-10.537-2.646-2.108-1.86-3.442-3.878-4.224-6.138-.761-2.201-.644-4.499.46-6.629z"/></svg>