<svg width="20" height="20" xmlns="http://www.w3.org/2000/svg"><path d="M11.42 9.363L9.896 7.866l-.027-1.584-.786.786-1.07-1.05 1.973-1.974a.75.75 0 0 1 .693-.202.75.75 0 0 1 .692.202l5.676 5.676a.75.75 0 0 1-1.06 1.06l-4.62-4.618.055 3.201zm.076 4.415l.094 5.46a.75.75 0 1 1-1.5.025l-.12-7.011 1.526 1.526zM6.934 9.216L5.37 10.78a.75.75 0 1 1-1.06-1.06l1.564-1.565 1.06 1.061zM4.84 1.75a.75.75 0 0 1 0-1.5h11.502a.75.75 0 0 1 0 1.5H4.84zm12.605 15.244a.5.5 0 0 1-.71.703L4.144 4.968a.5.5 0 1 1 .71-.703l12.59 12.73z"/></svg>