<svg width="20" height="20" xmlns="http://www.w3.org/2000/svg"><path d="M2.004 1.959v7.587c-.02.568.033 1.302.218 2.163a10.63 10.63 0 0 0 1.667 3.842c.44.632.955 1.227 1.55 1.779 1.158 1.051 2.372 1.773 3.574 2.227.734.278 1.312.405 1.664.44l.069.003c.334 0 .877-.101 1.59-.39 1.127-.456 2.353-1.267 3.64-2.512.12-.125.213-.228.305-.331 1.204-1.365 1.972-2.834 2.386-4.318.267-.96.35-1.766.33-2.343l-.084-7.736-.005-.4-.331-.213c-.37-.239-1.069-.574-2.097-.902C14.763.308 12.699-.013 10.286 0c-2.373.014-4.35.325-5.949.84-1.008.324-1.674.658-2.02.9l-.313.219zm7.08 9.423l-3.075-3.13a.734.734 0 0 0-1.054-.008l.024-.024a.77.77 0 0 0 .008 1.072l3.563 3.627c.26.265.658.297.946.098a.773.773 0 0 0 .127-.104l6.384-6.499a.788.788 0 0 0 .002-1.09l.048.049a.746.746 0 0 0-1.071.001l-5.903 6.008zM3.49 2.753a9.03 9.03 0 0 1 1.282-.511c1.46-.47 3.291-.758 5.52-.771 2.263-.013 4.18.285 5.755.788a10.52 10.52 0 0 1 1.425.562l.079 7.282c0 .034 0 .034.002.052.014.432-.053 1.09-.277 1.892-.356 1.276-1.02 2.545-2.072 3.737-.08.092-.163.182-.248.272-1.132 1.094-2.202 1.802-3.156 2.188-.538.218-.899.286-1.053.285.022 0-.088-.018-.254-.054-.29-.064-.62-.16-.978-.296-1.038-.393-2.096-1.022-3.109-1.941A9.45 9.45 0 0 1 5.069 14.7a9.121 9.121 0 0 1-1.436-3.307c-.157-.732-.202-1.344-.187-1.768l.003-6.851.042-.022z"/></svg>