<svg width="20" height="20" xmlns="http://www.w3.org/2000/svg"><path d="M10 20C4.477 20 0 15.523 0 10S4.477 0 10 0s10 4.477 10 10-4.477 10-10 10zM4 8.668a1.467 1.467 0 1 1 0 2.935v1.204c0 1.106.897 2.005 2.004 2.005h8.465a2.004 2.004 0 0 0 2.004-2.005v-1.204a1.467 1.467 0 1 1 0-2.935v-.885a2.006 2.006 0 0 0-2.004-2.005H6.004A2.004 2.004 0 0 0 4 7.783v.885zm6.667 2.443h1.867c.237 0 .443.2.443.445a.449.449 0 0 1-.443.444h-1.867v1.115a.501.501 0 0 1-.507.495h.125a.5.5 0 0 1-.507-.495V12H7.999a.449.449 0 0 1-.443-.444c0-.239.198-.445.443-.445h1.779V9.333H7.999a.449.449 0 0 1-.443-.444c0-.238.198-.445.443-.445h.77L8.225 7.5a.445.445 0 1 1 .77-.444l.633 1.096a.45.45 0 0 1 .055.293h1.053a.449.449 0 0 1 .056-.293l.633-1.096a.446.446 0 1 1 .77.444l-.546.945h.886c.237 0 .443.2.443.445a.449.449 0 0 1-.443.444h-1.867v1.778z"/></svg>