<svg width="20" height="20" xmlns="http://www.w3.org/2000/svg"><path d="M1.543 9.796c.04.026.078.055.114.089l1.548 1.436a1 1 0 0 1-.316 1.664l-.668.262a8.353 8.353 0 0 0 15.664-.517.75.75 0 0 1 1.424.472 9.853 9.853 0 0 1-9.352 6.748c-5.44 0-9.85-4.41-9.85-9.85a.75.75 0 0 1 1.436-.304zm16.83.61a.822.822 0 0 1-.124-.094L16.7 8.875a1 1 0 0 1 .316-1.664l.669-.262.005-.002a8.353 8.353 0 0 0-15.684.594.75.75 0 1 1-1.428-.46A9.853 9.853 0 0 1 9.957.25c5.44 0 9.85 4.41 9.85 9.85a.75.75 0 0 1-1.434.307zM7.482 6.903h.84v3.965h.907v.731h-.907V12.9h-.874v-1.302H4.525v-.865l2.957-3.83zm-.059 1.16l-2.15 2.805h2.175V8.062h-.025zm5.158-1.277c.764 0 1.369.168 1.814.52.429.337.697.832.807 1.504h-.924c-.084-.403-.27-.705-.555-.907-.285-.21-.672-.31-1.142-.31-.58 0-1.042.192-1.386.596-.37.42-.546 1-.546 1.738 0 .723.16 1.277.495 1.664.353.42.908.63 1.655.63.294 0 .571-.042.832-.11.252-.067.47-.168.672-.294v-1.302h-1.655v-.78h2.57v2.52c-.31.243-.672.428-1.083.562a4.866 4.866 0 0 1-1.437.202c-.957 0-1.696-.303-2.226-.908-.495-.562-.739-1.293-.739-2.184 0-.898.244-1.638.74-2.217.52-.622 1.226-.924 2.108-.924z"/></svg>