<svg width="20" height="20" xmlns="http://www.w3.org/2000/svg"><path d="M17.068 16.408l2.021 2.018a.75.75 0 0 1-1.06 1.061l-2.053-2.05a3.75 3.75 0 1 1 1.091-1.03zM10.525 18.5a.75.75 0 1 1 0 1.5H3.89c-1.467 0-2.639-1.24-2.639-2.75v-14C1.25 1.74 2.422.5 3.889.5H16.26c1.468 0 2.64 1.24 2.64 2.75v7.013a.75.75 0 0 1-1.5 0V3.25c0-.7-.52-1.25-1.14-1.25H3.89c-.62 0-1.139.55-1.139 1.25v14c0 .7.52 1.25 1.139 1.25h6.636zM5 6a.75.75 0 0 1 0-1.5h8A.75.75 0 1 1 13 6H5zm0 4a.75.75 0 0 1 0-1.5h3A.75.75 0 0 1 8 10H5zm0 4a.75.75 0 1 1 0-1.5h1A.75.75 0 1 1 6 14H5zm9 2.5a2.25 2.25 0 1 0 0-4.5 2.25 2.25 0 0 0 0 4.5z"/></svg>