<svg width="20" height="20" xmlns="http://www.w3.org/2000/svg"><path d="M4.89 16.936a4.45 4.45 0 0 1-.354.014C2.031 16.95 0 14.85 0 12.26c0-2.59 2.031-4.689 4.536-4.689.108 0 .215.004.32.012C5.56 5.19 7.709 3.45 10.253 3.45c2.54 0 4.688 1.737 5.392 4.125C18.066 7.673 20 9.733 20 12.261c0 2.538-1.95 4.605-4.387 4.687v.002H4.89v-.014zm2.345-9.463l1.342 2.222H7.235l.012.634H9.22v1.9H7.235l.012.633H9.22v2.534h1.317v-2.534h1.974v-.633h-1.974v-1.9h1.974v-.634h-1.096l1.35-2.222-.551-.309-1.563 2.531H9.349l-1.543-2.53-.571.308z"/></svg>