<svg width="20" height="20" xmlns="http://www.w3.org/2000/svg"><path d="M2 1.5a.5.5 0 0 0-.5.5v12a.5.5 0 0 0 .5.5h8a.5.5 0 0 0 .5-.5V2a.5.5 0 0 0-.5-.5H2zM2 0h8a2 2 0 0 1 2 2v12a2 2 0 0 1-2 2H2a2 2 0 0 1-2-2V2a2 2 0 0 1 2-2zm1.5 5.25a.75.75 0 0 1 0-1.5h5a.75.75 0 0 1 0 1.5h-5zm0 3a.75.75 0 0 1 0-1.5h5a.75.75 0 0 1 0 1.5h-5zm0 3a.75.75 0 1 1 0-1.5h5a.75.75 0 1 1 0 1.5h-5zm5 5.75a.5.5 0 0 0 .5.5h8a.5.5 0 0 0 .5-.5V5a.5.5 0 0 0-.5-.5h-4V3h4a2 2 0 0 1 2 2v12a2 2 0 0 1-2 2H9a2 2 0 0 1-2-2h1.5zM13 8.457V7.043A.749.749 0 0 1 13.25 7h2.5a.75.75 0 1 1 0 1.5h-2.5a.749.749 0 0 1-.25-.043zm0 3v-1.414a.749.749 0 0 1 .25-.043h2.5a.75.75 0 1 1 0 1.5h-2.5a.749.749 0 0 1-.25-.043zm0 3v-1.414a.749.749 0 0 1 .25-.043h2.5a.75.75 0 1 1 0 1.5h-2.5a.749.749 0 0 1-.25-.043z"/></svg>