<svg width="20" height="20" xmlns="http://www.w3.org/2000/svg"><g transform="translate(.4 .305)"><path d="M1.92 13.039v3.473a.5.5 0 0 0 .506.505h3.473a.5.5 0 0 0 .505-.505v-3.473a.5.5 0 0 0-.505-.506H2.426a.5.5 0 0 0-.506.506zm-1.5 0a2 2 0 0 1 2.006-2.006h3.473a2 2 0 0 1 2.005 2.006v3.473A2 2 0 0 1 5.9 18.517H2.426A2 2 0 0 1 .42 16.512v-3.473zm10.956 0v3.473a.5.5 0 0 0 .506.505h3.473a.5.5 0 0 0 .505-.505v-3.473a.5.5 0 0 0-.505-.506h-3.473a.5.5 0 0 0-.506.506zm-1.5 0a2 2 0 0 1 2.006-2.006h3.473a2 2 0 0 1 2.005 2.006v3.473a2 2 0 0 1-2.005 2.005h-3.473a2 2 0 0 1-2.006-2.005v-3.473zM1.92 3.81v3.473a.5.5 0 0 0 .506.505h3.473a.5.5 0 0 0 .505-.505V3.81a.5.5 0 0 0-.505-.506H2.426a.5.5 0 0 0-.506.506zm-1.5 0a2 2 0 0 1 2.006-2.006h3.473A2 2 0 0 1 7.904 3.81v3.473A2 2 0 0 1 5.9 9.289H2.426A2 2 0 0 1 .42 7.284V3.81zm10.385 2.094L13.26 8.36a.5.5 0 0 0 .715 0l2.455-2.456a.5.5 0 0 0 0-.715l-2.455-2.456a.5.5 0 0 0-.715 0L10.805 5.19a.5.5 0 0 0 0 .715zm-1.06 1.06a2 2 0 0 1 0-2.836L12.2 1.673a2 2 0 0 1 2.836 0l2.456 2.456a2 2 0 0 1 0 2.836l-2.456 2.456a2 2 0 0 1-2.836 0L9.744 6.965z"/><rect opacity=".46" x="2.588" y="4.081" width="3.056" height="2.932" rx="1.466"/></g></svg>