<svg width="20" height="20" xmlns="http://www.w3.org/2000/svg"><path d="M10 20C4.477 20 0 15.523 0 10S4.477 0 10 0s10 4.477 10 10-4.477 10-10 10zm-2.687-4.826a1.465 1.465 0 0 1 2.93 0h3.413a2.007 2.007 0 0 0 2.006-2.007v-6.27a2.004 2.004 0 0 0-2.006-2.008h-3.412a1.465 1.465 0 1 1-2.93 0H6.45a2.007 2.007 0 0 0-2.006 2.007v6.27c0 1.113.898 2.008 2.006 2.008h.863zm1.131-7.566c0-.275.232-.497.5-.497.277 0 .5.232.5.497v.34a.503.503 0 0 1-.5.496.505.505 0 0 1-.5-.496v-.34zm0 2.222c0-.274.232-.497.5-.497.277 0 .5.233.5.497v.34a.503.503 0 0 1-.5.497.505.505 0 0 1-.5-.497v-.34zm0 2.222c0-.274.232-.496.5-.496.277 0 .5.232.5.496v.34a.503.503 0 0 1-.5.497.505.505 0 0 1-.5-.497v-.34z"/></svg>