<svg width="20" height="20" xmlns="http://www.w3.org/2000/svg"><path d="M18.359 11.53c-.964.435-2.31.667-3.787.667-1.478 0-2.823-.232-3.788-.666v.847h.002c0 .051.258.28.842.497.755.283 1.81.45 2.945.45 1.135 0 2.19-.167 2.946-.45.557-.208.817-.425.84-.489v-.855zm1.493-1.919h.007v2.767h.002l-.002.07v2.46h.005c0 1.553-2.395 2.447-5.292 2.447-2.217 0-4.137-.524-4.917-1.465-.972.554-2.48.854-4.158.854-2.64 0-4.86-.742-5.232-2.05H.21v-8.14h.007C.359 5.089 2.69 4.25 5.497 4.25c2.686 0 4.938.77 5.25 2.12h.037v1.6c.965-.433 2.31-.666 3.788-.666 2.808 0 5.141.84 5.28 2.307zm-1.493 5.312v-.764c-.964.434-2.31.666-3.786.666-1.478 0-2.824-.233-3.789-.667v.75c0 .051.259.28.842.498.756.282 1.81.449 2.946.449 1.135 0 2.191-.167 2.948-.45.539-.2.801-.411.839-.482zM1.709 8.477v.934c0 .05.26.28.842.497.756.283 1.811.45 2.946.45 1.135 0 2.19-.167 2.946-.45.583-.218.841-.446.841-.497v-.934c-.964.434-2.31.666-3.787.666-1.477 0-2.823-.232-3.787-.666zm0 5.82c0 .051.26.28.842.498.756.282 1.811.45 2.946.45 1.135 0 2.19-.168 2.946-.45.583-.218.841-.447.841-.497v-.664c-.964.434-2.31.667-3.787.667-1.477 0-2.823-.233-3.787-.667v.664zm0-2.443c0 .051.26.28.842.498.756.282 1.811.449 2.946.449 1.135 0 2.19-.167 2.946-.45.583-.218.841-.446.841-.497v-.663c-.964.434-2.31.667-3.787.667-1.477 0-2.823-.233-3.787-.667v.663zm3.788-4.21c1.135 0 2.19-.168 2.946-.45.583-.218.841-.447.841-.497 0-.051-.258-.28-.841-.498-.756-.282-1.811-.449-2.946-.449-1.135 0-2.19.167-2.946.45-.583.218-.841.446-.841.497 0 .05.258.279.841.497.756.282 1.811.45 2.946.45zm9.075 3.053c1.135 0 2.19-.167 2.945-.45.584-.217.842-.446.842-.496 0-.051-.258-.28-.842-.498-.755-.282-1.81-.45-2.945-.45-1.135 0-2.19.168-2.946.45-.583.218-.842.447-.842.498 0 .05.259.279.842.497.756.282 1.81.45 2.946.45z"/></svg>