<svg width="20" height="20" xmlns="http://www.w3.org/2000/svg"><path d="M10 20C4.477 20 0 15.523 0 10S4.477 0 10 0s10 4.477 10 10-4.477 10-10 10zm.72-13.992l.318-.55c.494-.857.1-1.461-.88-1.357l-2.007.216c-.977.104-1.45.92-1.053 1.823l.815 1.851c.396.9 1.118.942 1.611.088l.337-.584 2.482 1.44c1.707 1 1.714 2.155 1.714 2.155 1.152-2.564-.934-3.596-.934-3.596L10.72 6.008zM9.462 13.97l-.318.55c-.494.857-.1 1.461.88 1.356l2.007-.215c.977-.104 1.45-.92 1.053-1.823l-.815-1.851c-.396-.9-1.118-.942-1.611-.088l-.337.584-2.482-1.44c-1.707-1-1.714-2.153-1.714-2.153-1.152 2.564.934 3.596.934 3.596l2.403 1.486z"/></svg>