<svg width="20" height="20" xmlns="http://www.w3.org/2000/svg"><path d="M3.992 17.545a.753.753 0 0 1-.165-.013l-2.985-.557a.75.75 0 1 1 .276-1.475l.932.175a9.732 9.732 0 0 1-1.72-5.538C.33 4.744 4.702.372 10.095.372a.75.75 0 1 1 0 1.5 8.265 8.265 0 0 0-5.572 14.37.75.75 0 0 1-.53 1.303zm8.72-10.19l-.193-.19a.75.75 0 0 1 1.05-1.071l1.505 1.474a.75.75 0 0 1-.556 1.286H5.403a.75.75 0 0 1 0-1.5h7.308zm2.678-5.25a.752.752 0 0 1 .168.013l2.985.558a.75.75 0 0 1-.275 1.474l-.537-.1a9.739 9.739 0 0 1 2.129 6.087c0 5.393-4.372 9.765-9.765 9.765a9.84 9.84 0 0 1-1.603-.131.75.75 0 1 1 .245-1.48 8.265 8.265 0 0 0 6.23-14.83.75.75 0 0 1 .423-1.356z"/><path d="M5.403 12.742a.75.75 0 0 1 0-1.5h9.115a.75.75 0 1 1 0 1.5H5.403z"/><path d="M4.877 12.532a.75.75 0 0 1 1.05-1.072l1.505 1.475a.75.75 0 0 1-1.05 1.071l-1.505-1.474z"/></svg>