<svg width="20" height="20" xmlns="http://www.w3.org/2000/svg"><path d="M9.38 16.376a.75.75 0 0 1 .75-.73h7.499a.75.75 0 0 1 0 1.5h-5.572l.646.59a.75.75 0 0 1-1.011 1.108l-2.067-1.887a.748.748 0 0 1-.244-.58zm6.347-3.338l-.685-.625a.75.75 0 1 1 1.011-1.108l2.067 1.886a.746.746 0 0 1 .215.344.749.749 0 0 1-.706 1.003H10.13a.75.75 0 0 1 0-1.5h5.597zm-4.84-4.15a3.343 3.343 0 0 0-1.51-6.328A3.343 3.343 0 0 0 7.87 8.887l1.509.765 1.509-.765zm-1.51.957l-1.656.436c-2.598.685-4.756 2.984-4.756 4.685 0 1.53 2.361 2.466 6.413 2.466a.75.75 0 0 1 0 1.5c-4.815 0-7.913-1.227-7.913-3.966 0-2.086 1.934-4.456 4.49-5.636a4.843 4.843 0 1 1 6.774.07.75.75 0 0 1-.874 1.154 6.974 6.974 0 0 0-.82-.273l-1.657-.436z"/></svg>