<svg width="20" height="20" xmlns="http://www.w3.org/2000/svg"><path d="M4.171 16.672v-4.25c0-3.2 2.604-5.795 5.797-5.795h.138a5.8 5.8 0 0 1 5.797 5.795v4.25h1.612c.421 0 .763.343.763.773 0 .426-.34.772-.763.772H2.757a.766.766 0 0 1-.764-.772c0-.427.34-.773.764-.773h1.414zm1.591-4.25v4.269h8.55v-4.269a4.275 4.275 0 0 0-8.55 0zm6.136-.92a.782.782 0 0 1-.79-.772c0-.427.353-.773.79-.773.436 0 .79.346.79.773a.782.782 0 0 1-.79.772zM9.246 1.786c0-.434.351-.786.791-.786.437 0 .79.364.79.786V4.85c0 .434-.35.786-.79.786a.796.796 0 0 1-.79-.786V1.786zm5.482 1.887a.827.827 0 0 1 1.11-.298l-.032-.018a.785.785 0 0 1 .291 1.089l-1.157 1.96a.827.827 0 0 1-1.11.297l.031.018a.785.785 0 0 1-.29-1.088l1.157-1.96zm-9.604 0l1.158 1.96A.785.785 0 0 1 5.99 6.72l.033-.018a.827.827 0 0 1-1.11-.298L3.754 4.446a.785.785 0 0 1 .291-1.089l-.032.018a.827.827 0 0 1 1.11.298zm12.687 4.154a.81.81 0 0 1 1.083.281.764.764 0 0 1-.292 1.057l-1.295.73a.81.81 0 0 1-1.083-.28.764.764 0 0 1 .292-1.058l1.295-.73zm-15.622 0l1.295.73c.38.215.51.688.292 1.057a.81.81 0 0 1-1.083.282l-1.295-.73a.764.764 0 0 1-.292-1.058.81.81 0 0 1 1.083-.281z"/></svg>