<svg width="21" height="20" xmlns="http://www.w3.org/2000/svg"><path d="M2.75 6.075V8.12c.308.08.588.253.833.502.33.338.488.783.488 1.298 0 .323-.06.617-.178.86a1.906 1.906 0 0 1-1.141 1.02v2.916c0 .178.018.262.003.265.008-.01.111.006.327-.002.146 0 .38.004.665.01.285.007.585.01.937.01h.457V5.75h-2.06c-.131 0-.235.008-.308.02-.012.06-.023.163-.023.305zm-.316 4.211a.441.441 0 0 0 .102-.146.528.528 0 0 0 .035-.22c0-.145-.024-.212-.06-.248-.071-.073-.117-.098-.173-.106-.282-.047-.527-.145-.72-.314-.263-.23-.368-.546-.368-.9V6.076c0-.535.105-.967.358-1.291.312-.4.8-.534 1.472-.534h3.561v12.248H4.684c-.362 0-.674-.003-.972-.01-.275-.006-.497-.01-.602-.01-.572.021-1.03-.086-1.364-.385-.354-.315-.494-.786-.494-1.378v-3.093c0-.288.058-.547.2-.764.183-.279.47-.427.81-.49l.136-.012c-.056 0-.064.001-.074.006a.432.432 0 0 0 .11-.076zm16.137-2.501a1.313 1.313 0 0 1-.489-.452 1.332 1.332 0 0 1-.197-.848 1.416 1.416 0 0 1 .32-.735H8.586v9.248H18.2a1.436 1.436 0 0 1-.18-.227 1.375 1.375 0 0 1 .08-1.647 1.43 1.43 0 0 1 .478-.378c-.489-.277-.775-.716-.737-1.245.023-.512.326-.9.815-1.182a1.403 1.403 0 0 1-.602-.521 1.394 1.394 0 0 1 .09-1.655c.121-.148.27-.27.426-.358zm1.414 1.734a1.51 1.51 0 0 1 .088 1.452 1.289 1.289 0 0 1-.55.586c.166.113.305.257.402.416.148.225.235.486.25.748.02.266-.037.532-.152.745-.124.254-.321.436-.619.568.252.141.447.364.543.613.098.228.137.476.11.747a1.4 1.4 0 0 1-.227.61c-.2.321-.558.51-.903.494H7.087V4.25h11.935a1.05 1.05 0 0 1 .926.475 1.37 1.37 0 0 1 .08 1.394 1.22 1.22 0 0 1-.442.496c.167.109.312.251.424.421.15.228.24.469.25.722.015.27-.05.539-.19.775a1.226 1.226 0 0 1-.602.507c.205.112.38.274.517.479zm-7.812-1.64h2.905v.511h-2.436l-.168 1.673h.028a1.3 1.3 0 0 1 .539-.378c.196-.084.406-.119.637-.119.476 0 .86.147 1.155.448.294.308.448.728.448 1.267 0 .504-.182.917-.54 1.24-.335.3-.755.454-1.245.454-.441 0-.82-.119-1.127-.357-.35-.266-.54-.63-.574-1.085h.567c.028.315.154.56.378.728.196.147.455.224.763.224.35 0 .637-.112.868-.336.224-.224.343-.51.343-.86 0-.4-.112-.708-.322-.925-.203-.224-.49-.329-.854-.329-.238 0-.448.05-.637.154a.991.991 0 0 0-.448.448h-.546l.266-2.758z"/></svg>