<svg width="20" height="20" xmlns="http://www.w3.org/2000/svg"><path d="M9.233 13.904l2.04-2.04a.691.691 0 0 1 .11-.1.672.672 0 0 1 .91.1l1.848 1.848a.678.678 0 1 1-.958.957l-1.4-1.4-2.07 2.07a.67.67 0 0 1-.884.053.698.698 0 0 1-.116-.094l-2.86-2.86a.68.68 0 0 1-.006-.963.681.681 0 0 1 .964.007l2.422 2.422zM2.045 9.267c0-1.107.887-2.005 2.004-2.005h12.07c1.107 0 2.004.897 2.004 2.005v8.472a1.998 1.998 0 0 1-2.004 2.005H4.05a2.005 2.005 0 0 1-2.004-2.005V9.267zm1.663-.373v9.218H16.46V8.894H3.708zm12.168-2.722h-1.635V2.807H5.927v3.365H4.292V3.154c0-1.101.89-1.994 1.992-1.994h7.6c1.1 0 1.992.895 1.992 1.994v3.018z"/><path d="M11.797 3.64c.548 0 .993.447.993.995v.389c0 .55-.443.995-.993.995H8.371a.995.995 0 0 1-.992-.995v-.39c0-.55.442-.995.992-.995h3.426z" opacity=".46"/></svg>