<svg width="20" height="20" xmlns="http://www.w3.org/2000/svg"><path d="M1.75 6.075V8.12c.306.08.585.253.828.502.328.337.485.782.485 1.296 0 .322-.06.616-.177.857a1.905 1.905 0 0 1-1.134 1.02v2.916c0 .177.018.262.004.265.006-.01.107.005.32-.002.145 0 .377.003.66.01.283.006.582.01.932.01h.45V5.75H2.074a1.8 1.8 0 0 0-.302.02 1.75 1.75 0 0 0-.022.304zm-.323 4.21a.44.44 0 0 0 .1-.146.533.533 0 0 0 .036-.222c0-.145-.024-.212-.06-.249-.07-.072-.114-.096-.168-.104a1.423 1.423 0 0 1-.72-.315C.355 9.02.25 8.704.25 8.352V6.075c0-.534.104-.965.356-1.289.31-.4.797-.535 1.468-.535h3.544v12.241h-1.95c-.36 0-.67-.003-.967-.01a35.55 35.55 0 0 0-.598-.01c-.57.021-1.027-.086-1.36-.386-.352-.315-.491-.785-.491-1.376v-3.092c0-.287.057-.545.199-.762.182-.279.468-.428.809-.49l.135-.013c-.058 0-.065.001-.077.007a.425.425 0 0 0 .109-.075zm16.477-2.5a1.322 1.322 0 0 1-.49-.443 1.32 1.32 0 0 1-.205-.86 1.405 1.405 0 0 1 .323-.732H7.578v9.248h9.949a1.434 1.434 0 0 1-.176-.218 1.36 1.36 0 0 1 .083-1.665 1.45 1.45 0 0 1 .477-.369c-.495-.276-.787-.713-.747-1.246.024-.515.332-.9.827-1.18a1.417 1.417 0 0 1-.605-.513 1.379 1.379 0 0 1 .093-1.672 1.49 1.49 0 0 1 .425-.35zm1.42 1.725c.144.22.227.473.242.732.016.261-.039.521-.15.737a1.3 1.3 0 0 1-.555.579c.165.11.304.25.402.406.153.227.244.49.26.755.02.27-.04.54-.159.756-.127.252-.326.43-.623.56.25.14.447.359.545.605.102.23.142.482.115.757a1.39 1.39 0 0 1-.236.615 1.046 1.046 0 0 1-.906.486H6.079V4.25h12.28c.373-.014.73.165.927.466a1.355 1.355 0 0 1 .083 1.41 1.212 1.212 0 0 1-.443.489c.166.107.31.246.424.412.155.23.249.473.26.73.015.274-.053.546-.198.785a1.24 1.24 0 0 1-.605.499c.204.11.38.268.517.47zm-9.736 3.243a.75.75 0 0 1-1.054-1.067l2.128-2.105a.75.75 0 0 1 1.076.022l1.398 1.5 2.267-2.569a.75.75 0 1 1 1.125.993l-2.815 3.189a.75.75 0 0 1-1.11.015l-1.436-1.54-1.579 1.562z"/></svg>