<svg width="20" height="20" xmlns="http://www.w3.org/2000/svg"><path d="M6.752 1.374h-.16c-1.1 0-2 .894-2 1.996v12.696a2 2 0 0 0 2 1.997h6.77c.25 0 .49-.046.71-.13l.872.872c-.622.4-1.36.632-2.152.632h-5.63a4 4 0 0 1-3.993-4.004V4.003A4.003 4.003 0 0 1 7.162 0h5.63a4 4 0 0 1 3.993 4.004v11.43c0 .324-.038.64-.111.942l-1.311-1.311V3.37a2 2 0 0 0-2.001-1.996h-.16v.431a.536.536 0 0 1-.528.533H7.28a.536.536 0 0 1-.528-.533v-.431zm7.327 13.494l3.348 3.348a.717.717 0 0 1-1.014 1.014l-3.366-3.367a4.207 4.207 0 1 1 1.032-.995zm-3.393.292a2.78 2.78 0 1 0 0-5.56 2.78 2.78 0 0 0 0 5.56z"/><path d="M5.958 4.242c0-.551.455-.998 1.002-.998h6.034a1 1 0 0 1 1.002.998v2.042c0 .55-.455.998-1.002.998H6.96a1 1 0 0 1-1.002-.998V4.242z" opacity=".525"/></svg>