<svg width="20" height="20" xmlns="http://www.w3.org/2000/svg"><path d="M13.944 5.028h3.987c1.27 0 2.023.785 2.023 2.076v8.97c0 1.468-.867 2.329-2.34 2.329H2.3c-1.464 0-2.3-.92-2.3-2.456V4.367C0 2.87.89 2 2.4 2h4.084l1.015 1.173h3.986c1.346 0 2.212.672 2.459 1.855zM3.469 15.708a.75.75 0 0 1 0-1.5h5.015a.75.75 0 1 1 0 1.5H3.469zM5.8 3.5H2.4c-.69 0-.9.207-.9.867v11.58c0 .738.198.956.8.956h15.314c.647 0 .84-.192.84-.83V7.104c0-.476-.096-.576-.523-.576H8.42L5.798 3.5zm5.686 1.173H8.8l.304.352h3.266c-.15-.254-.429-.352-.886-.352z"/></svg>