<svg width="20" height="20" xmlns="http://www.w3.org/2000/svg"><path d="M7.443 6.807v2.525a2.551 2.551 0 1 1-1.5.066V6.815l-.413.412a.75.75 0 0 1-1.06-1.06L6.167 4.47a.75.75 0 0 1 1.06 0l1.697 1.697a.75.75 0 0 1-1.06 1.06l-.421-.42zm6.307 4.843h1.05a.75.75 0 1 1 0 1.5h-1.05v1.05a.75.75 0 1 1-1.5 0v-1.05H11.2a.75.75 0 0 1 0-1.5h1.05v-1.012a2.551 2.551 0 1 1 1.5 0v1.012zm-6.95 1.2a1.05 1.05 0 1 0 0-2.1 1.05 1.05 0 0 0 0 2.1zm6.2-3.6a1.05 1.05 0 1 0 0-2.1 1.05 1.05 0 0 0 0 2.1zm-3 10.5C4.615 19.75.25 15.385.25 10S4.615.25 10 .25s9.75 4.365 9.75 9.75-4.365 9.75-9.75 9.75zm0-1.5a8.25 8.25 0 1 0 0-16.5 8.25 8.25 0 0 0 0 16.5z"/></svg>