<svg width="20" height="20" xmlns="http://www.w3.org/2000/svg"><path d="M5.083 9.85a2.676 2.676 0 0 1-.872-1.983C4.21 6.394 5.389 5.2 6.842 5.2c1.453 0 2.632 1.194 2.632 2.667 0 .787-.337 1.494-.872 1.983 1.146.535 1.924 1.578 1.924 2.776 0 1.745-1.65 2.174-3.684 2.174-2.035 0-3.684-.429-3.684-2.174 0-1.198.778-2.24 1.925-2.776zm1.76-.617c.73 0 1.33-.608 1.33-1.366 0-.759-.6-1.367-1.33-1.367-.732 0-1.332.608-1.332 1.367 0 .758.6 1.366 1.331 1.366zm0 4.267c1.792 0 2.383-.289 2.383-.874 0-.979-1.027-1.86-2.384-1.86s-2.384.881-2.384 1.86c0 .585.592.874 2.384.874zm4.736-6.128a.75.75 0 1 1 0-1.5h4.267a.75.75 0 1 1 0 1.5H11.58zm.587 3.404a.75.75 0 1 1 0-1.5h3.644a.75.75 0 1 1 0 1.5h-3.644zm.012 3.403a.75.75 0 0 1 0-1.5H15.8a.75.75 0 1 1 0 1.5h-3.62zM2 3.5a.5.5 0 0 0-.5.5v12a.5.5 0 0 0 .5.5h16a.5.5 0 0 0 .5-.5V4a.5.5 0 0 0-.5-.5H2zM2 2h16a2 2 0 0 1 2 2v12a2 2 0 0 1-2 2H2a2 2 0 0 1-2-2V4a2 2 0 0 1 2-2z"/></svg>