<svg width="20" height="20" xmlns="http://www.w3.org/2000/svg"><path d="M14.19 7.54a.787.787 0 0 1 .01-.017l3.275-5.678a.814.814 0 0 1 1.116-.297.822.822 0 0 1 .301 1.115L16.08 7.54h.926c1.102 0 1.995.89 1.995 2.002v3.32a5.327 5.327 0 0 1-5.327 5.32H6.329a5.328 5.328 0 0 1-5.327-5.32V9.54c0-1.106.892-2.002 1.995-2.002h.925L1.11 2.663a.815.815 0 0 1 .302-1.115.821.821 0 0 1 1.115.297l3.277 5.678.009.016h3.37V1.815c0-.45.364-.815.819-.815.452 0 .818.373.818.815v5.724h3.371zM2.65 9.186v3.673a3.675 3.675 0 0 0 3.672 3.674h7.357a3.672 3.672 0 0 0 3.672-3.674V9.187H2.65zM10 15.623a.818.818 0 1 1 .001-1.637.818.818 0 0 1 0 1.637zm3.273 0a.818.818 0 1 1 0-1.637.818.818 0 0 1 0 1.637zm-6.545 0a.818.818 0 1 1 .001-1.637.818.818 0 0 1 0 1.637z"/></svg>