<svg width="20" height="20" xmlns="http://www.w3.org/2000/svg"><path d="M9.857 4.968c-2.7 0-4.889 2.097-4.889 4.684 0 3.072 2.133 3.855 2.133 5.642 0 .442.338.853.846 1.155-.107.088-.166.185-.166.286 0 .137.107.264.291.373-.172.107-.273.23-.273.361 0 .133.103.257.28.365-.181.109-.286.235-.286.369 0 .164.155.314.414.436-.1.091-.158.192-.158.298 0 .312.487.578 1.173.685.12.223.365.378.65.378a.734.734 0 0 0 .649-.376c.692-.105 1.185-.372 1.185-.686 0-.105-.056-.204-.154-.294.265-.123.422-.275.422-.44 0-.133-.102-.258-.278-.365.18-.109.285-.234.285-.368 0-.136-.108-.264-.291-.373.173-.107.273-.23.273-.362 0-.105-.064-.204-.178-.295.5-.301.831-.708.831-1.146 0-1.788 2.13-2.571 2.13-5.642 0-2.588-2.189-4.685-4.889-4.685zm2.516 7.545c-.487.716-1.038 1.524-1.072 2.635-.167.187-.765.49-1.48.49-.714 0-1.312-.303-1.48-.49-.033-1.112-.585-1.92-1.073-2.636-.544-.797-1.058-1.55-1.058-2.898 0-1.877 1.62-3.404 3.61-3.404 1.99 0 3.61 1.527 3.61 3.404 0 1.348-.514 2.102-1.057 2.9zM9.334 3.198c.352 0 .64-.38.64-.845V.846C9.974.38 9.686 0 9.334 0c-.352 0-.64.38-.64.846v1.507c0 .465.288.845.64.845zm-4.098 2.12c.305-.175.363-.649.131-1.051l-.753-1.305c-.233-.403-.672-.589-.977-.413-.305.176-.364.65-.132 1.052l.754 1.305c.233.403.672.589.977.413zm10.64-2.77c-.305-.175-.745.01-.978.413l-.753 1.306c-.232.402-.174.876.131 1.051.306.176.745-.01.977-.412l.754-1.305c.233-.403.173-.877-.131-1.052zM2.423 7.985L1.12 7.23c-.403-.232-.877-.173-1.053.131-.175.305.01.745.413.977l1.305.754c.403.232.877.173 1.052-.132.175-.304-.01-.744-.413-.976zM17.73 9.092l1.305-.754c.402-.232.588-.672.412-.977-.176-.304-.65-.363-1.052-.13l-1.305.753c-.402.232-.588.672-.412.976.175.305.649.364 1.052.132zm.062 4.563l-1.304-.753c-.403-.233-.877-.174-1.052.131-.176.305.009.744.413.977l1.304.753c.403.233.876.174 1.052-.13.176-.306-.01-.745-.413-.978zm-14.765-.753l-1.305.753c-.403.233-.589.672-.413.977.176.305.65.363 1.053.131l1.304-.753c.403-.233.589-.672.413-.977-.176-.304-.65-.364-1.052-.13z"/></svg>