<svg width="20" height="20" xmlns="http://www.w3.org/2000/svg"><path d="M16.317 8.393h-1.49V5.07C14.826 2.25 12.482 0 9.57 0 6.659 0 4.28 2.25 4.28 5.071v3.322H2.79c-.71 0-1.314.571-1.314 1.25v9.107c0 .679.568 1.25 1.314 1.25h13.563c.71 0 1.314-.571 1.314-1.25V9.643c-.036-.714-.604-1.25-1.35-1.25zm-6.093 5.78v1.852c0 .066-.063.165-.156.165h-.993c-.094 0-.156-.066-.156-.165v-1.852a1.432 1.432 0 0 1-.776-1.29c0-.793.621-1.454 1.428-1.454.777 0 1.429.66 1.429 1.455 0 .562-.31 1.058-.776 1.29zm2.645-5.602h-6.63V5.163c0-1.798 1.485-3.258 3.332-3.258 1.848 0 3.334 1.46 3.334 3.258l-.036 3.408z"/></svg>