<svg width="20" height="20" xmlns="http://www.w3.org/2000/svg"><path d="M2.13 8.078l2.222 9.302h11.635L18.2 8.058l-2.478 1.373a.75.75 0 0 1-.969-.212l-4.39-5.992L5.47 9.248a.75.75 0 0 1-.951.18l-2.39-1.35zM15.572 7.8l3.385-1.876a.75.75 0 0 1 1.093.83l-2.742 11.55a.75.75 0 0 1-.73.577H3.76a.75.75 0 0 1-.729-.576L.271 6.754a.75.75 0 0 1 1.098-.828L4.705 7.81l5.106-6.284a.75.75 0 0 1 1.187.03l4.575 6.242z"/><path d="M12.68 10.832a1 1 0 1 1 1.487 1.336L10.9 15.801a1 1 0 0 1-1.482.005l-3.312-3.632a1 1 0 1 1 1.478-1.348l2.568 2.817 2.526-2.811z" opacity=".46"/></svg>