<svg width="20" height="20" xmlns="http://www.w3.org/2000/svg"><g transform="translate(-977 -577)"><path d="M979.5 578.75a.75.75 0 0 0-.75.75v15.144c0 .415.336.75.75.75h15.014a.75.75 0 0 0 .75-.75v-2.65a.75.75 0 0 1 1.5 0v2.65a2.25 2.25 0 0 1-2.25 2.25H979.5a2.25 2.25 0 0 1-2.25-2.25V579.5a2.25 2.25 0 0 1 2.25-2.25h5.745l3.065 2.946h6.204a2.25 2.25 0 0 1 2.25 2.25v3.649a.75.75 0 0 1-1.5 0v-3.649a.75.75 0 0 0-.75-.75h-6.808l-3.065-2.946H979.5z"/><circle cx="996" cy="589" r="1"/><path d="M990.535 588.25l-1.53-1.53a.75.75 0 0 1 1.06-1.06l2.264 2.262a1.55 1.55 0 0 1 0 2.192l-2.263 2.263a.75.75 0 1 1-1.06-1.06l1.566-1.567h-7.18a.75.75 0 1 1 0-1.5h7.143z"/></g></svg>