<svg width="20" height="20" xmlns="http://www.w3.org/2000/svg"><path d="M10.583 8.486a3.66 3.66 0 1 0-3.303 0l1.651.837 1.652-.837zM7.132 9.88c-2.823.744-5.167 3.241-5.167 5.102 0 1.696 2.572 2.715 6.966 2.715.267 0 .529-.004.786-.011a.75.75 0 1 1 .045 1.499c-.272.008-.55.012-.83.012-5.158 0-8.467-1.311-8.467-4.215 0-2.243 2.108-4.804 4.88-6.053a5.16 5.16 0 1 1 7.117.052.75.75 0 0 1-.84 1.194 7.57 7.57 0 0 0-.891-.295l-1.8-.475-1.8.475zm5.792 2.227a.5.5 0 0 0-.5.5v4.435a.5.5 0 0 0 .5.5h3.734a.5.5 0 0 0 .5-.5v-4.435a.5.5 0 0 0-.5-.5h-3.734zm0-1.5h3.734a2 2 0 0 1 2 2v4.435a2 2 0 0 1-2 2h-3.734a2 2 0 0 1-2-2v-4.435a2 2 0 0 1 2-2zm.449 3.695a.75.75 0 0 1 0-1.5h2.776a.75.75 0 0 1 0 1.5h-2.776zm0 2.307a.75.75 0 1 1 0-1.5h2.402a.75.75 0 0 1 0 1.5h-2.402z"/></svg>