<svg width="20" height="20" xmlns="http://www.w3.org/2000/svg"><path d="M7.065 18.126h8.365a.508.508 0 0 0 .501-.503v-4.821a.501.501 0 0 0-.5-.504H7.064v5.828zm-1.67.303H1.447v-6.434h3.946v-1.197H15.43c1.105 0 2.001.895 2.001 2.004v4.82a2.008 2.008 0 0 1-2 2.004H5.393v-1.197zm0-1.5v-3.434H2.947v3.434h2.446zm-.548-8.217a8.232 8.232 0 0 1 2.418-5.77 8.232 8.232 0 0 1 5.77-2.419v1.273a6.951 6.951 0 0 0-4.873 2.042 6.951 6.951 0 0 0-2.043 4.874H4.847zm2.306 0a5.93 5.93 0 0 1 1.742-4.14 5.93 5.93 0 0 1 4.14-1.742v1.243a4.69 4.69 0 0 0-3.26 1.378 4.69 4.69 0 0 0-1.379 3.26H7.153zm2.548 0c.007-.836.33-1.67.967-2.307a3.295 3.295 0 0 1 2.367-.968v1.265a2.034 2.034 0 0 0-1.472.597c-.391.39-.59.9-.598 1.413H9.701zm4.006.731a.991.991 0 1 1-1.403-1.402.991.991 0 0 1 1.403 1.402z"/><path d="M8.175 13.811c0-.273.223-.495.502-.495h3.376c.278 0 .503.225.503.495v2.802a.498.498 0 0 1-.503.496H8.677a.502.502 0 0 1-.502-.496V13.81z" opacity=".46"/></svg>