<svg width="20" height="20" xmlns="http://www.w3.org/2000/svg"><path d="M7.311 11.173L1.34 17.146a1.914 1.914 0 0 1-.072-.124c-.174-.326-.267-.65-.267-1.54v-5.9c0-.892.093-1.215.267-1.541.174-.326.43-.582.756-.756.326-.175.65-.267 1.54-.267h7.904l-2.26 2.26-.783-1.356-1.113.642.95 1.66-.394.394h-.556v.555zm5.434-1.557l2.598-2.598h2.14c.892 0 1.216.092 1.541.267.326.174.582.43.756.756.175.326.268.649.268 1.54v5.9c0 .892-.093 1.215-.268 1.541-.174.326-.43.582-.756.756-.325.174-.649.267-1.54.267H4.316l3.572-3.572h1.993v2.173h1.285v-2.173h2.57v-1.285h-2.57v-1.285h2.57v-1.285h-1.582l.591-1.002zm-3.572 3.572l.708-.708v.708h-.708zm6.635-10.511L12.3 6.185H5.01L10.66.916c.652-.608.952-.76 1.31-.855a1.817 1.817 0 0 1 1.068.037c.35.12.638.293 1.246.945l1.524 1.634zm1.87 2.006c.563.612.71.904.801 1.25.023.084.039.168.05.252h-2.353l1.502-1.502zM9.258.88L4.35 5.455H3.005l1.236-3.59c.29-.844.484-1.12.755-1.37.27-.252.596-.41.96-.47.366-.058.701-.04 1.544.25l1.72.592.037.013zM1.336 18.404L17.499 2.24a.476.476 0 0 1 .674.674L2.01 19.077a.476.476 0 0 1-.673-.673z"/></svg>