<svg width="20" height="20" xmlns="http://www.w3.org/2000/svg"><path d="M5.922 1.468v-.46a.998.998 0 0 1 1-1.008h6.156c.552 0 1 .452 1 1.008v.46h1.135c1.54 0 2.787 1.274 2.787 2.855v12.822C18 18.722 16.745 20 15.213 20H4.787C3.247 20 2 18.726 2 17.145V4.323c0-1.577 1.255-2.855 2.787-2.855h1.135zm0 1.624h-1.14c-.72 0-1.297.594-1.297 1.328v12.61c0 .729.58 1.327 1.297 1.327h10.436c.72 0 1.297-.594 1.297-1.328V4.42c0-.729-.58-1.327-1.297-1.327h-1.14v.444a.998.998 0 0 1-1 1.008H6.922c-.552 0-1-.452-1-1.008v-.444zm1.505-1.427V2.88c0 .11.087.197.195.197h4.756a.198.198 0 0 0 .195-.197V1.665a.195.195 0 0 0-.195-.197H7.622a.198.198 0 0 0-.195.197zm-2.26 5.723c0-.395.321-.715.71-.715h8.245a.715.715 0 0 1 0 1.431H5.878a.711.711 0 0 1-.711-.716zm0 3.808c0-.396.321-.716.71-.716h8.245a.715.715 0 1 1 0 1.431H5.878a.711.711 0 0 1-.711-.715zm0 3.807c0-.396.321-.716.71-.716h8.245a.715.715 0 1 1 0 1.431H5.878a.711.711 0 0 1-.711-.715z"/></svg>