<svg width="20" height="20" xmlns="http://www.w3.org/2000/svg"><path d="M5.754 12.093c0-.554.449-1.002 1-1.002h2.048c.552 0 1 .45 1 1.002v1.335c0 .553-.448 1.002-1 1.002H6.755c-.553 0-1.001-.45-1.001-1.002v-1.335z" opacity=".403"/><path d="M16.523 10.904h-1.531V3.071a.994.994 0 0 0-.995-.994H5.204a.997.997 0 0 0-.996.994v11.835c0 .55.446.994.996.994h4.764v1.535H5.682a3 3 0 0 1-3.005-3.001V3.543c0-1.657 1.353-3 3.005-3h7.837a3 3 0 0 1 3.004 3v7.361zm-5.402 3.757V9.22c0-.423.342-.766.77-.766.425 0 .769.342.769.766v3.076c0-.423.341-.765.77-.765.424 0 .768.354.768.765v.4c0-.422.342-.765.77-.765.424 0 .769.354.769.765v.235c0-.423.341-.765.77-.765.424 0 .768.354.768.765v.242c0-.422.342-.765.77-.765.424 0 .769.354.769.765v1.49h.001v2.307a2.311 2.311 0 0 1-2.309 2.307H13.43a2.303 2.303 0 0 1-2.31-2.307v-2.31h.002zM5.754 4.836c0-.425.35-.77.766-.77h6.16c.424 0 .766.342.766.77 0 .425-.35.77-.765.77H6.52a.766.766 0 0 1-.766-.77zm0 3.617c0-.425.345-.77.761-.77h2.526c.42 0 .761.342.761.77 0 .425-.345.77-.761.77H6.515a.763.763 0 0 1-.761-.77z"/></svg>