<svg width="20" height="20" xmlns="http://www.w3.org/2000/svg"><path d="M5.643 6.32a.75.75 0 0 1 0-1.5h5.058a.75.75 0 1 1 0 1.5H5.643zm-.143 5a.75.75 0 1 1 0-1.5h2.204a.75.75 0 1 1 0 1.5H5.5zm4.812 1.25a1 1 0 1 1 1.403-1.403 3.993 3.993 0 0 1 1.059-.44 1 1 0 1 1 1.981-.001c.379.096.736.246 1.063.44a1 1 0 1 1 1.403 1.403c.197.33.347.69.443 1.072a1 1 0 1 1 0 1.96c-.095.381-.245.74-.44 1.07a1 1 0 0 1-1.408 1.406 4.02 4.02 0 0 1-1.071.442 1 1 0 1 1-1.96-.001 3.993 3.993 0 0 1-1.07-.442 1 1 0 1 1-1.403-1.403 3.993 3.993 0 0 1-.438-1.06 1 1 0 1 1 0-1.985c.095-.376.244-.732.438-1.058zm5.972 2.051a2.517 2.517 0 1 0-5.034 0 2.517 2.517 0 0 0 5.034 0zM8 18.5A.75.75 0 1 1 8 20H4a2.75 2.75 0 0 1-2.75-2.75V2.75A2.75 2.75 0 0 1 4 0h10a2.75 2.75 0 0 1 2.75 2.75v5.564a.75.75 0 1 1-1.5 0V2.75c0-.69-.56-1.25-1.25-1.25H4c-.69 0-1.25.56-1.25 1.25v14.5c0 .69.56 1.25 1.25 1.25h4z"/></svg>