<svg width="20" height="20" xmlns="http://www.w3.org/2000/svg"><path d="M13.898 1.767v.42a.561.561 0 0 1-.551.559H7.71a.561.561 0 0 1-.552-.559v-.42h-.744c-.831 0-1.5.669-1.5 1.498v13.468c0 .83.67 1.498 1.5 1.498h8.227c.831 0 1.5-.669 1.5-1.498V3.265c0-.83-.67-1.498-1.5-1.498h-.744zM3.415 3.265a2.996 2.996 0 0 1 3-2.998h8.227c1.657 0 3 1.338 3 2.998v13.468a2.996 2.996 0 0 1-3 2.998H6.415c-1.657 0-3-1.338-3-2.998V3.265z"/><path d="M10.532 9.089l1.506-1.782h1.538L11.301 10l2.275 2.692h-1.538l-1.506-1.782-1.506 1.782H7.488L9.763 10 7.488 7.308h1.538l1.506 1.782z" fill-opacity=".46"/></svg>