<svg width="20" height="20" xmlns="http://www.w3.org/2000/svg"><path d="M9.957 18.75c-3.541 0-6.712-2.303-9.509-6.797a2.75 2.75 0 0 1 0-2.906C3.245 4.553 6.416 2.25 9.958 2.25c3.541 0 6.712 2.303 9.509 6.797a2.75 2.75 0 0 1 0 2.906c-2.797 4.494-5.968 6.797-9.51 6.797zm0-1.5c2.943 0 5.687-1.993 8.236-6.09a1.25 1.25 0 0 0 0-1.32C15.644 5.743 12.9 3.75 9.957 3.75c-2.942 0-5.686 1.993-8.235 6.09a1.25 1.25 0 0 0 0 1.32c2.549 4.097 5.293 6.09 8.235 6.09zm0-10c1.791 0 3.25 1.457 3.25 3.25s-1.459 3.25-3.25 3.25a3.254 3.254 0 0 1-3.25-3.25c0-1.793 1.46-3.25 3.25-3.25zm0 1.5c-.962 0-1.75.786-1.75 1.75s.788 1.75 1.75 1.75c.963 0 1.75-.786 1.75-1.75s-.787-1.75-1.75-1.75z"/></svg>