<svg width="20" height="20" xmlns="http://www.w3.org/2000/svg"><path d="M1.903 3.757l.7-.046c1.463-.096 3.016-.628 4.556-1.46.608-.328 1.17-.68 1.673-1.032.299-.208.508-.368.613-.454l.466-.382.473.372c1.6 1.26 3.224 2.085 4.785 2.56.541.165 1.034.275 1.466.34.25.038.42.052.495.055l.722.02.006.723.061 6.99c-.147 3.267-1.627 5.562-3.978 6.993-.861.523-1.778.892-2.694 1.135-.553.147-.99.22-1.257.245l-.19-.007c-3.106-.503-5.254-1.93-6.562-3.99a8.744 8.744 0 0 1-1.167-2.886 6.93 6.93 0 0 1-.168-1.356v-7.82zm1.5 7.82c0 .191.033.56.136 1.045.173.817.484 1.635.966 2.393 1.065 1.678 2.81 2.85 5.436 3.297.201-.025.52-.084.922-.19a8.726 8.726 0 0 0 2.298-.968c1.941-1.181 3.136-3.033 3.259-5.739l-.056-6.28c-.442-.068-.993-.19-1.632-.385-1.581-.482-3.21-1.28-4.813-2.463-.07.05-.146.105-.228.162-.547.382-1.158.764-1.819 1.121-1.48.8-2.986 1.356-4.47 1.565v6.442z"/><path opacity=".47" d="M6.032 7.146l2.659-.031.045 3.096 3.172-3.035 3.04.062-7.939 7.801.11-6.79H6.032z"/></svg>