<svg width="20" height="21" xmlns="http://www.w3.org/2000/svg"><path d="M17.168 9.5h2.072a.75.75 0 1 1 0 1.5h-2.072a2.728 2.728 0 1 1 0-1.5zM2.832 18.274H.776a.75.75 0 0 1 0-1.5h2.056a2.728 2.728 0 1 1 0 1.5zm0-14.545H.776a.75.75 0 0 1 0-1.5h2.056a2.728 2.728 0 1 1 0 1.5zm2.623.477a1.227 1.227 0 1 0 0-2.454 1.227 1.227 0 0 0 0 2.454zm5.454-.477a.75.75 0 1 1 0-1.5h8.604a.75.75 0 1 1 0 1.5H10.91zM5.455 18.75a1.227 1.227 0 1 0 0-2.455 1.227 1.227 0 0 0 0 2.455zm5.454-.478a.75.75 0 0 1 0-1.5h8.604a.75.75 0 1 1 0 1.5H10.91zm3.636-6.795a1.227 1.227 0 1 0 0-2.455 1.227 1.227 0 0 0 0 2.455zM9.091 11H.776a.75.75 0 1 1 0-1.5h8.315a.75.75 0 0 1 0 1.5z"/></svg>