<svg width="20" height="20" xmlns="http://www.w3.org/2000/svg"><path d="M6.923 0H2.31C1.036 0 0 1.05 0 2.345v4.687c0 1.292 1.036 2.344 2.309 2.344h4.614c1.273 0 2.31-1.05 2.31-2.344V2.345C9.232 1.05 8.195 0 6.922 0zM8.31 7.03c0 .774-.62 1.406-1.386 1.406H2.31c-.763 0-1.386-.63-1.386-1.407V2.345C.924 1.57 1.544.94 2.31.94h4.614c.763 0 1.386.63 1.386 1.405v4.684zM4.617 3.75a.934.934 0 0 0-.923.937c0 .515.416.937.923.937a.934.934 0 0 0 .923-.937.934.934 0 0 0-.923-.937zM17.691 0h-4.614c-1.273 0-2.31 1.05-2.31 2.345v4.687c0 1.292 1.037 2.344 2.31 2.344h4.614c1.273 0 2.309-1.05 2.309-2.344V2.345C19.998 1.05 18.964 0 17.691 0zm1.384 7.03c0 .774-.62 1.404-1.386 1.404h-4.612c-.763 0-1.386-.63-1.386-1.405V2.345c0-.775.62-1.405 1.386-1.405h4.614c.763 0 1.386.63 1.386 1.405v4.684h-.002zm-3.692-3.28a.934.934 0 0 0-.923.937c0 .515.416.937.923.937a.934.934 0 0 0 .923-.937.932.932 0 0 0-.923-.937zm-8.46 6.874H2.31c-1.274 0-2.31 1.05-2.31 2.344v4.687C0 18.948 1.036 20 2.309 20h4.614c1.273 0 2.31-1.05 2.31-2.345v-4.687c0-1.294-1.037-2.344-2.31-2.344zm1.386 7.029c0 .775-.62 1.405-1.386 1.405H2.31c-.763 0-1.386-.63-1.386-1.405v-4.685c0-.775.62-1.407 1.386-1.407h4.614c.763 0 1.386.63 1.386 1.407v4.685zm-3.692-3.28a.934.934 0 0 0-.923.938c0 .515.416.937.923.937a.934.934 0 0 0 .923-.937.934.934 0 0 0-.923-.938zm14.551-3.437c-.288 0-.522.213-.522.478v3.024h-2.805l-.005-2.112v-.273c0-.524-.47-.954-1.044-.954h-2.67c-.574 0-1.044.43-1.044.954v7.158c0 .262.234.477.522.477.288 0 .522-.213.522-.478v-7.157h2.675v2.385c0 .525.47.955 1.044.955h2.805c.574 0 1.044-.43 1.044-.955v-3.022c0-.267-.234-.48-.522-.48zm-1.632 7.5a.93.93 0 0 0 .923.937.93.93 0 0 0 .923-.938.93.93 0 0 0-.923-.937.93.93 0 0 0-.923.937zm-3.692 0a.93.93 0 0 0 .923.937.93.93 0 0 0 .923-.938.93.93 0 0 0-.923-.937.93.93 0 0 0-.923.937z"/></svg>