<svg width="20" height="20" xmlns="http://www.w3.org/2000/svg"><path d="M11.922 14.942l-2.791.907.93-2.72 6.73-6.557a1.033 1.033 0 0 1 1.428 0l.432.422a.966.966 0 0 1 0 1.39l-6.73 6.558zm4.484-10.15L14.642 6.51V2.7H2.764v14.6h11.878v-2.852l1.764-1.719v5.279a.994.994 0 0 1-1 .993H2a.996.996 0 0 1-1-.994V1.993C1 1.445 1.444 1 1.999 1h13.408c.551 0 .999.445.999.993v2.799zm-11.65.932c0-.472.38-.855.844-.855h6.205c.467 0 .845.38.845.855 0 .472-.38.855-.845.855H5.6a.848.848 0 0 1-.845-.855zm0 4.276c0-.472.373-.855.845-.855h2.695c.467 0 .845.38.845.855a.847.847 0 0 1-.845.855H5.6A.848.848 0 0 1 4.755 10zm0 4.352a.86.86 0 0 1 .861-.855h.908c.476 0 .862.38.862.855a.86.86 0 0 1-.862.855h-.908a.856.856 0 0 1-.862-.855z"/></svg>