<svg width="20" height="20" xmlns="http://www.w3.org/2000/svg"><g transform="translate(2)"><rect opacity=".512" x="3.905" y="10.145" width="6.305" height="3.617" rx="1.808"/><path d="M3.905 4.406c0-.46.371-.834.83-.834h7.507c.459 0 .83.37.83.834a.83.83 0 0 1-.83.833H4.735a.83.83 0 0 1-.83-.833zm0 3.204c0-.46.376-.833.825-.833h4.656c.455 0 .824.37.824.833 0 .46-.375.833-.824.833H4.73a.827.827 0 0 1-.825-.833zm10.64-4.335c0-.832-.666-1.5-1.49-1.5H3.42c-.821 0-1.495.675-1.496 1.503L1.91 16.892l1.86-1.285 2.043 2.079 2.36-2.095 2.616 2.123 2.029-2.144 1.711 1.243.014-13.538zm-14.12.002A3.004 3.004 0 0 1 3.42.276h9.633a2.99 2.99 0 0 1 2.99 3l-.017 16.478-3.024-2.196-2.079 2.196-2.707-2.196-2.473 2.196-2.159-2.196-3.177 2.196.017-16.477z"/></g></svg>