<svg width="20" height="20" xmlns="http://www.w3.org/2000/svg"><path d="M11.959 7.812h1.113v1.094H10.67v1.858h2.403v1.094H10.67v1.856H9.574v-1.856H7.171v-1.094h2.403V8.906H7.171V7.812H8.4L7.29 6.125H8.6l1.113 1.687h.935l1.113-1.687h1.311L11.96 7.812z" opacity=".46"/><path d="M13.583 1.5v.454a.561.561 0 0 1-.551.559H7.396a.561.561 0 0 1-.552-.56V1.5H6.1c-.831 0-1.5.67-1.5 1.499v13.467c0 .83.67 1.499 1.5 1.499h8.227c.831 0 1.5-.67 1.5-1.5V3c0-.83-.67-1.499-1.5-1.499h-.744zM3.1 2.999A2.996 2.996 0 0 1 6.1 0h8.227c1.657 0 3 1.338 3 2.999v13.467a2.996 2.996 0 0 1-3 2.999H6.1c-1.657 0-3-1.338-3-3V3z"/></svg>