<svg width="20" height="20" xmlns="http://www.w3.org/2000/svg"><path d="M10 20C4.477 20 0 15.523 0 10S4.477 0 10 0s10 4.477 10 10-4.477 10-10 10zm0-1.5a8.5 8.5 0 1 0 0-17 8.5 8.5 0 0 0 0 17zm-.707-8.898c-.05.475.594 1.072 1.13 1.072-.005 0 .046-.032.202-.19l.153-.157c.76-.782 1.452-1.054 2.505-.59 2.054.903 3.05 3.934 1.139 5.16-1.835 1.176-4.899.528-7.259-1.615-2.218-2.012-2.98-4.487-2.446-6.742.58-2.454 3.592-2.75 5.23-.384.978 1.414.749 2.277-.307 3.119l-.03.024c-.26.206-.314.271-.317.303zM7.8 9.442c.061-.57.31-.866.873-1.316l.03-.024c.49-.39.491-.396.01-1.092-.943-1.361-2.276-1.23-2.538-.125-.407 1.725.183 3.642 1.995 5.287 1.904 1.728 4.252 2.225 5.442 1.462.697-.447.175-2.037-.934-2.524-.358-.158-.454-.12-.825.262a19.2 19.2 0 0 1-.164.168c-.415.42-.757.634-1.267.634-1.37 0-2.774-1.3-2.622-2.732z"/></svg>