<svg width="20" height="20" xmlns="http://www.w3.org/2000/svg"><path d="M5.313 5.636l4.855 2.641a.542.542 0 0 0 .521 0l4.856-2.64-4.856-2.641a.546.546 0 0 0-.521 0l-4.855 2.64zM4.43 4.408l5.02-2.73a2.046 2.046 0 0 1 1.955 0l5.02 2.73a1.398 1.398 0 0 1 0 2.456l-5.02 2.73a2.046 2.046 0 0 1-1.955 0l-5.02-2.73a1.398 1.398 0 0 1 0-2.456zm14.176 4.759v5.567a1.4 1.4 0 0 1-.706 1.216l-4.647 2.644a1.398 1.398 0 0 1-2.09-1.215V11.81c0-.503.27-.967.707-1.215l4.647-2.644a1.398 1.398 0 0 1 2.09 1.215zm-1.5.175l-4.443 2.528v5.333l4.443-2.528V9.342zM2.25 9.167a1.398 1.398 0 0 1 2.09-1.215l4.646 2.644c.437.248.707.712.707 1.215v5.568a1.398 1.398 0 0 1-2.09 1.215L2.957 15.95a1.398 1.398 0 0 1-.707-1.216V9.167zm1.5.175v5.333l4.443 2.528V11.87L3.75 9.342z"/></svg>