<svg width="20" height="20" xmlns="http://www.w3.org/2000/svg"><path d="M16.31 8.08h2.447a.713.713 0 1 1 0 1.43h-1.695a7.391 7.391 0 0 0-.752-1.43zm1.23 3.418h1.217a.713.713 0 1 1 0 1.428H17.54a7.503 7.503 0 0 0-.002-1.428zm-.422 3.29h1.639a.713.713 0 1 1 0 1.429h-2.35c.286-.446.525-.924.711-1.429zM3.711 8.081c-.3.444-.553.923-.752 1.428H1.265a.713.713 0 1 1 0-1.429H3.71zm-1.229 3.417a7.502 7.502 0 0 0-.002 1.428H1.265a.713.713 0 1 1 0-1.429h1.217zm.421 3.29c.186.505.425.983.711 1.429h-2.35a.713.713 0 1 1 0-1.429h1.64zm7.26 2.386a4.95 4.95 0 1 0 0-9.902 4.95 4.95 0 0 0 0 9.902zm0 1.5a6.45 6.45 0 1 1 0-12.902 6.45 6.45 0 0 1 0 12.902zm4.264-12.477a7.426 7.426 0 0 0-2.611-1.218L14.55.25h3.363l-3.486 5.947zm-8.573.012L2.265.229h3.363l2.83 4.756a7.427 7.427 0 0 0-2.604 1.224z"/><path opacity=".46" d="M10.341 14.152L8.197 15.28l.41-2.388-1.735-1.69 2.397-.35L10.34 8.68l1.072 2.173 2.397.348-1.734 1.691.41 2.388z"/></svg>