<svg width="20" height="20" xmlns="http://www.w3.org/2000/svg"><path d="M5.744 7.333a1 1 0 0 1 .995-1h.81c.549 0 .994.449.994 1V9.84a1 1 0 0 1-.994 1h-.81a.998.998 0 0 1-.995-1V7.333z" opacity=".307"/><path d="M5.744 4.193c0-.425.342-.769.766-.769h6.93c.423 0 .766.342.766.77a.767.767 0 0 1-.766.769H6.51a.766.766 0 0 1-.766-.77zm3.862 3.27c0-.425.345-.769.76-.769h3.08c.42 0 .76.341.76.77a.768.768 0 0 1-.76.768h-3.08a.763.763 0 0 1-.76-.769zm7.578 1.933a6.514 6.514 0 0 0-1.526-.94V2.624c0-.55-.451-1-1.009-1H5.301a1 1 0 0 0-1.01 1v14.18c0 .551.453 1 1.01 1h2.173A6.545 6.545 0 0 0 8.76 19.33H5.77a3.01 3.01 0 0 1-3.005-3.005V3.105A3.004 3.004 0 0 1 5.771.1h8.408a3.01 3.01 0 0 1 3.005 3.005v6.29zm-1.641 8.42l-.364-.488.673-.918a3.446 3.446 0 1 0-6.227-2.034 3.443 3.443 0 0 0 3.416 3.446h.065l2.437-.006zm-2.498 1.544a4.984 4.984 0 1 1 4.047-2.04l1.513 2.027-5.495.013a5.086 5.086 0 0 1-.055 0h-.01zm.023-4.228a.732.732 0 1 1 0-1.464.732.732 0 0 1 0 1.464zm2.177 0a.732.732 0 1 1 0-1.464.732.732 0 0 1 0 1.464zm-4.353 0a.732.732 0 1 1 0-1.464.732.732 0 0 1 0 1.464z"/></svg>