<svg width="20" height="20" xmlns="http://www.w3.org/2000/svg"><path d="M4.554 6.454a7.35 7.35 0 0 0-1.59 4.585c0 1.846.675 3.58 1.859 4.905l.542-.552a.75.75 0 0 1 1.07 1.051L5.389 17.51a.759.759 0 0 1-.056.051.75.75 0 0 1-1.018.003 8.834 8.834 0 0 1-2.85-6.524c0-4.85 3.866-8.789 8.642-8.789.064 0 .127 0 .19.002a.76.76 0 0 1 .16.005 8.556 8.556 0 0 1 5.953 2.768.761.761 0 0 1 .139.155 8.842 8.842 0 0 1 2.201 5.86 8.842 8.842 0 0 1-2.566 6.25.75.75 0 0 1-1.11-.048l-1.046-1.066a.75.75 0 1 1 1.07-1.05l.53.539a7.324 7.324 0 0 0 1.555-3.624h-.715a.75.75 0 1 1 0-1.5h.766a7.342 7.342 0 0 0-1.361-3.806l-.27.28a.75.75 0 1 1-1.08-1.042l.35-.363a7.057 7.057 0 0 0-3.77-1.79v.687a.75.75 0 1 1-1.5 0v-.74a7.032 7.032 0 0 0-4 1.614l.577.588a.75.75 0 0 1-1.07 1.05l-.556-.565zm3.122.913c-.05-.718.841-1.089 1.314-.545 1.602 1.84 2.633 3.3 3.1 4.416.574 1.369.346 2.48-.821 2.925-2.186.833-3.226-1.648-3.593-6.796zm2.332 4.665c.29.694.48.823.726.73.222-.085.258-.263-.027-.944-.23-.548-.653-1.239-1.267-2.066.152.98.342 1.741.568 2.28z"/></svg>