<svg width="20" height="20" xmlns="http://www.w3.org/2000/svg"><path d="M9.642 12.137l7.485-7.225a.75.75 0 1 1 1.042 1.08l-8.015 7.736h-.001a.75.75 0 0 1-1.054-.01L4.946 9.549A.75.75 0 0 1 6.008 8.49l3.634 3.647zm5.9-10.065a.75.75 0 0 1-.876 1.218A8.054 8.054 0 0 0 9.95 1.773c-4.483 0-8.117 3.648-8.117 8.15 0 4.5 3.634 8.148 8.117 8.148 4.482 0 8.117-3.648 8.117-8.149a.75.75 0 1 1 1.5 0c0 5.329-4.305 9.65-9.617 9.65-5.312 0-9.617-4.321-9.617-9.65C.332 4.594 4.637.273 9.949.273c2.033 0 3.974.636 5.593 1.799z"/></svg>