<svg width="20" height="20" xmlns="http://www.w3.org/2000/svg"><path d="M18.317 11.715v6.268a2 2 0 0 1-2 2H3.553a2 2 0 0 1-2-2v-6.268c.722.36 1.536.562 2.398.562a5.365 5.365 0 0 0 2.992-.908c.87.583 1.906.908 2.992.908a5.365 5.365 0 0 0 2.992-.908c.87.583 1.906.908 2.992.908.862 0 1.676-.202 2.398-.562zm1.23-6.382a3.95 3.95 0 0 1-6.62 4.145 3.942 3.942 0 0 1-2.992 1.37 3.942 3.942 0 0 1-2.992-1.37A3.95 3.95 0 0 1 .38 5.204l-.002-.002L2.477.586A1 1 0 0 1 3.387 0h13.101a1 1 0 0 1 .91.586l2.156 4.741-.006.006z"/></svg>