<svg width="20" height="20" xmlns="http://www.w3.org/2000/svg"><path d="M15.178 13.487c-.93 0-1.838-.204-2.665-.591a6.284 6.284 0 0 1-2.665.591c-.93 0-1.837-.204-2.665-.591a6.284 6.284 0 0 1-3.3.56v3.394a.5.5 0 0 0 .5.5h10.93a.5.5 0 0 0 .5-.5v-3.395c-.21.021-.422.032-.635.032zm2.135 3.363a2 2 0 0 1-2 2H4.383a2 2 0 0 1-2-2v-5.364a4.78 4.78 0 0 0 2.136.501c.967 0 1.89-.29 2.664-.809a4.78 4.78 0 0 0 2.665.81c.968 0 1.89-.29 2.665-.81.775.52 1.697.81 2.665.81.767 0 1.492-.181 2.135-.502v5.364zM15.293 2.5H4.408l-1.28 2.816.015.016-.45.947A2.019 2.019 0 0 0 6.048 8.46l1.135-1.316L8.32 8.461c.382.443.933.7 1.53.7a2.01 2.01 0 0 0 1.528-.7l1.136-1.316 1.135 1.316a2.019 2.019 0 0 0 3.384-2.117l-.134-.31L15.292 2.5zm-7.327 7.617l-.783-.676-.782.676a3.519 3.519 0 0 1-5.062-4.482l1.838-4.049A1 1 0 0 1 4.087 1h11.527a1 1 0 0 1 .91.586l1.89 4.159-.004.004a3.519 3.519 0 0 1-5.114 4.368l-.783-.676-.783.676a3.502 3.502 0 0 1-1.882.545c-.692 0-1.337-.2-1.882-.545z"/></svg>