<svg width="20" height="20" xmlns="http://www.w3.org/2000/svg"><path d="M14.72 10.488c0-1.51-9.83-5.452-11.7-4.408-.492.274-1.047 2.161-1.047 4.408 0 2.247.555 4.135 1.047 4.409 1.87 1.043 11.7-2.899 11.7-4.409zm1.5 0c0 2.86-11.223 7.228-13.93 5.72-2.423-1.351-2.423-10.089 0-11.439 2.707-1.51 13.93 2.86 13.93 5.72z"/><path d="M8.966 9.903a6.482 6.482 0 0 0-1.433-.486 5.254 5.254 0 0 0-.102 1.071c0 .396.037.776.102 1.071l.032-.006c.4-.078.906-.25 1.401-.48a6.537 6.537 0 0 0 1.027-.585 6.537 6.537 0 0 0-1.027-.585zm2.857.585c0 1.237-4.199 3.127-5.212 2.474-.906-.584-.906-4.364 0-4.948 1.013-.653 5.212 1.237 5.212 2.474z"/><path d="M18.143 10.517c0-.988-2.155-2.985-5.276-4.622C9.904 4.34 6.873 3.565 6.24 3.922c-.609.343-1.418 3.273-1.506 6.525-.093 3.414.604 6.154 1.441 6.573 2.516 1.26 11.968-3.89 11.968-6.503zm1.5 0c0 3.843-10.73 9.553-14.14 7.844-3.409-1.708-2.64-14.257 0-15.746 2.642-1.489 14.14 4.059 14.14 7.902z"/></svg>