<svg width="20" height="20" xmlns="http://www.w3.org/2000/svg"><path d="M1.796 4.717c-.02.047-.046.19-.046.422v2.206c.315.084.597.27.842.535.32.348.47.8.47 1.326 0 .33-.056.629-.17.875-.1.234-.243.446-.42.623a1.968 1.968 0 0 1-.538.379c-.064.027-.124.05-.182.07v3.128c0 .211.024.318.014.325.003-.01.097.005.31-.003.145 0 .378.004.661.01.283.008.582.011.93.011h.45V4.751H2.075c-.215 0-.302.018-.284-.026l.006-.008zM1.41 9.643a.51.51 0 0 0 .11-.168.672.672 0 0 0 .042-.269c0-.172-.03-.261-.074-.31-.071-.076-.113-.1-.161-.108a1.404 1.404 0 0 1-.729-.336C.35 8.218.25 7.903.25 7.549v-2.41c0-.55.1-.99.343-1.322.309-.42.805-.566 1.48-.566h3.545v12.873h-1.95c-.361 0-.672-.003-.968-.01-.272-.007-.493-.01-.595-.011-.577.023-1.043-.093-1.378-.412-.341-.325-.475-.802-.475-1.41v-3.273c0-.29.054-.549.188-.767.178-.288.467-.448.812-.515l.054-.005a.428.428 0 0 0 .105-.078zm16.566-2.695a1.354 1.354 0 0 1-.574-.509 1.379 1.379 0 0 1-.195-.859 1.465 1.465 0 0 1 .388-.83H7.578v9.88h10.025a1.522 1.522 0 0 1-.263-.317 1.425 1.425 0 0 1 .08-1.675c.163-.203.369-.35.57-.432a.419.419 0 0 1-.017-.008c-.535-.285-.849-.75-.81-1.312.025-.547.361-.962.904-1.258v-.003a1.434 1.434 0 0 1-.692-.577 1.447 1.447 0 0 1 .09-1.684 1.52 1.52 0 0 1 .512-.416zm1.358 1.868c.137.224.217.479.231.74.015.261-.037.522-.143.74a1.311 1.311 0 0 1-.627.642c.2.123.366.29.478.477.147.231.234.497.25.765.018.27-.038.54-.152.758-.136.284-.36.481-.712.622l.026.015c.283.144.503.389.607.664.096.232.135.484.108.758-.03.236-.114.46-.226.623-.2.33-.563.527-.916.51H6.079V3.25h.75l11.528.001c.384-.017.745.176.94.49a1.424 1.424 0 0 1 .08 1.418 1.235 1.235 0 0 1-.512.55c.199.117.368.28.496.479.15.233.238.479.249.736.015.274-.05.546-.188.787-.15.26-.385.447-.703.56.248.117.46.302.616.545zm-8.848-1.568h.448v4.998h-.574V7.948a2.674 2.674 0 0 1-1.176.686V8.06a2.97 2.97 0 0 0 .7-.3c.238-.155.434-.323.602-.512zm3.297-.098c.595 0 1.043.26 1.351.791.266.448.399 1.05.399 1.806s-.133 1.358-.399 1.806c-.308.525-.756.791-1.351.791-.602 0-1.05-.266-1.351-.79-.266-.449-.399-1.05-.399-1.807 0-.756.133-1.358.399-1.806.301-.532.749-.79 1.351-.79zm0 .49c-.448 0-.77.238-.966.721-.14.336-.21.798-.21 1.386 0 .581.07 1.043.21 1.386.196.476.518.721.966.721.448 0 .77-.245.966-.72.14-.344.217-.806.217-1.387 0-.588-.077-1.05-.217-1.386-.196-.483-.518-.72-.966-.72z"/></svg>