<svg width="19" height="20" xmlns="http://www.w3.org/2000/svg"><path d="M7.633 4.509a1.25 1.25 0 0 0-.866-.144L2.8 5.144a1.25 1.25 0 0 0-.942 1.628l1.303 3.841c.097.287.296.53.558.681l9.163 5.29a1.25 1.25 0 0 0 1.708-.457l2.666-4.62A1.25 1.25 0 0 0 16.8 9.8L7.633 4.51zm.75-1.3l9.166 5.292a2.75 2.75 0 0 1 1.006 3.757l-2.666 4.619a2.75 2.75 0 0 1-3.757 1.006l-9.163-5.29a2.75 2.75 0 0 1-1.229-1.498L.437 7.253a2.75 2.75 0 0 1 2.074-3.581l3.967-.78a2.75 2.75 0 0 1 1.905.318zM6.56 11.587a2.75 2.75 0 1 1 2.75-4.763 2.75 2.75 0 0 1-2.75 4.763zm.75-1.299a1.25 1.25 0 1 0 1.25-2.165 1.25 1.25 0 0 0-1.25 2.165z"/></svg>