<svg width="20" height="20" xmlns="http://www.w3.org/2000/svg"><path d="M7.396 18.101c-.615-1.047-1.085-2.471-1.374-4.123-1.652-.289-3.076-.76-4.123-1.374a8.528 8.528 0 0 0 5.497 5.497zm5.208 0a8.528 8.528 0 0 0 5.497-5.497c-1.047.615-2.471 1.085-4.123 1.374-.289 1.652-.76 3.076-1.374 4.123zm-.194-3.911a24.68 24.68 0 0 1-2.41.115c-.83 0-1.637-.04-2.41-.115.527 2.585 1.49 4.317 2.41 4.317.92 0 1.883-1.732 2.41-4.317zM7.396 1.899a8.528 8.528 0 0 0-5.497 5.497C2.946 6.78 4.37 6.31 6.022 6.022c.289-1.652.76-3.076 1.374-4.123zm5.208 0c.615 1.047 1.085 2.471 1.374 4.123 1.652.289 3.076.76 4.123 1.374a8.528 8.528 0 0 0-5.497-5.497zM12.41 5.81c-.527-2.585-1.49-4.317-2.41-4.317-.92 0-1.883 1.732-2.41 4.317A24.68 24.68 0 0 1 10 5.695c.83 0 1.637.04 2.41.115zm-5.066 6.846a22.387 22.387 0 0 0 5.312 0 22.387 22.387 0 0 0 0-5.312A22.27 22.27 0 0 0 10 7.187c-.929 0-1.822.056-2.656.157A22.27 22.27 0 0 0 7.187 10c0 .929.056 1.822.157 2.656zM5.81 12.41A24.68 24.68 0 0 1 5.695 10c0-.83.04-1.637.115-2.41-2.585.527-4.317 1.49-4.317 2.41 0 .92 1.732 1.883 4.317 2.41zm8.38-4.82c.076.773.115 1.58.115 2.41 0 .83-.04 1.637-.115 2.41 2.585-.527 4.317-1.49 4.317-2.41 0-.92-1.732-1.883-4.317-2.41zM10 20C4.477 20 0 15.523 0 10S4.477 0 10 0s10 4.477 10 10-4.477 10-10 10z"/></svg>