<svg width="20" height="20" xmlns="http://www.w3.org/2000/svg"><path d="M10.75 9.25h3.75a.75.75 0 1 1 0 1.5H10a.75.75 0 0 1-.75-.75V4.375a.75.75 0 1 1 1.5 0V9.25zm.148-32.848l6.04-6.04-1.697-1.697-5.944 5.945 1.601 1.792zm-1.359.73l-1.05-1.174-.43 1.578 1.48-.403zm1.13 1.247l-.009.008-.004-.004-2.642.72a1.248 1.248 0 0 1-1.209-.326 1.248 1.248 0 0 1-.312-1.2l.792-2.903a.806.806 0 0 1 .157-.306l-.033.046-.024.046.129-.187 7.703-7.705c.372-.37.875-.572 1.41-.572.587 0 1.162.244 1.585.67l.727.726c.425.424.67.999.67 1.586 0 .536-.203 1.039-.575 1.41l-7.696 7.696a.872.872 0 0 1-.533.258l-.136.037zm7.33-9.078a.492.492 0 0 0 .11-.323.758.758 0 0 0-.23-.525l-.728-.728a.76.76 0 0 0-.524-.23c-.13 0-.24.04-.324.11l1.695 1.696zM7.306-25.354c.01-.066.013-.087.078-.186-.067.13-.068.135-.078.186zm10.307 5.968V-26a.75.75 0 1 1 1.5 0v7.364a.75.75 0 0 1-.75.75H3.636a.75.75 0 0 1-.75-.75v-14.728a.75.75 0 0 1 .75-.75h8.361a.75.75 0 0 1 0 1.5h-7.61v13.228h13.227zM10 19.75C4.615 19.75.25 15.385.25 10S4.615.25 10 .25s9.75 4.365 9.75 9.75-4.365 9.75-9.75 9.75zm0-1.5a8.25 8.25 0 1 0 0-16.5 8.25 8.25 0 0 0 0 16.5z"/></svg>