<svg width="20" height="20" xmlns="http://www.w3.org/2000/svg"><path d="M14.532 13.831A2.751 2.751 0 0 1 11.934 16l-.09.001h-4.24a2.75 2.75 0 0 1-2.694-2.195l-2.325 1.528-.174-1.16c-.263-1.753-.136-3.14.42-4.16.52-.955 1.275-1.788 2.259-2.496l.428-.31C6.23 3.802 7.484 1.519 9.324.366l.363-.228.38.197c1.95 1.01 3.245 3.344 3.94 6.991l.263.162c.939.582 1.707 1.429 2.304 2.528.629 1.159.757 2.568.41 4.203l-.228 1.074-2.224-1.46zm-7.738 3.2a.55.55 0 0 1 1.1 0v1.188a.55.55 0 0 1-1.1 0V17.03zm2.375 0a.55.55 0 0 1 1.1 0v2.375a.55.55 0 0 1-1.1 0v-2.375zm2.375 0a.55.55 0 0 1 1.1 0v1.188a.55.55 0 0 1-1.1 0V17.03zm3.441-4.697l.682.448c.037-.802-.103-1.484-.412-2.052a6.333 6.333 0 0 0-.47-.742l.2 2.346zm-10.566 0l.197-2.317a5.32 5.32 0 0 0-.468.714c-.262.482-.389 1.156-.365 2.02l.636-.417zm1.937.867l-.001.049c0 .69.56 1.25 1.25 1.25h4.279a1.25 1.25 0 0 0 1.209-1.291c-.203-6.182-1.365-9.944-3.338-11.315C7.762 3.466 6.59 7.228 6.356 13.2zM9.77 5.75c.985.556 1.793 1.947 2.426 4.172 0 0-1.788-2.92-2.418-2.92-.63 0-2.434 2.92-2.434 2.92.532-2.225 1.34-3.616 2.426-4.172z"/></svg>