<svg width="20" height="20" xmlns="http://www.w3.org/2000/svg"><path d="M11.759 11.428l-3.496-.008v.008c-.76.01-2.124.783-2.124.783 0-1.51.94-2.347 1.569-2.74C6.596 3.68 9.928 2 9.928 2c2.778 1.632 2.726 5.226 2.371 7.476.63.393 1.562 1.231 1.562 2.735 0 0-1.337-.759-2.102-.783zm1.429-6.55h3.398c.55 0 .995.441.995 1.006v8.887c0 .057-.005.114-.014.17h.334c.607 0 1.099.483 1.099 1.09 0 .601-.481 1.089-1.099 1.089H2.1A1.092 1.092 0 0 1 1 16.03c0-.602.481-1.09 1.099-1.09h.333a1.049 1.049 0 0 1-.013-.17V5.885c0-.555.454-1.005.995-1.005H6.84a9.393 9.393 0 0 0-.298 1.449H3.855v7.999h12.29v-8h-2.687a10.233 10.233 0 0 0-.27-1.448zm-3.255-.991s-1.88 1.874-.667 6.085h1.449s1.135-4.303-.782-6.085zm.046 9.879c-1.187-.605-1.187-1.923-1.187-1.923h2.374s-.071 1.526-1.187 1.923z"/></svg>