<svg width="20" height="20" xmlns="http://www.w3.org/2000/svg"><path d="M9.122 3.574L6.07 6.627a.75.75 0 0 1-1.062 0l-.18-.18a.75.75 0 0 1 0-1.062L9.31.904a.889.889 0 0 1 .115-.116L9.46.753a.75.75 0 0 1 1.062 0l.18.18a.76.76 0 0 1 .05.056l4.306 4.306a.878.878 0 0 1-1.241 1.242l-2.94-2.94V13.76a.878.878 0 0 1-1.755 0V3.574zM.055 13.317a.834.834 0 1 1 1.663.08v3.556c0 .646.524 1.17 1.17 1.17h14.224a1.17 1.17 0 0 0 1.17-1.17v-3.636a.834.834 0 1 1 1.663.08v4.147a2.34 2.34 0 0 1-2.339 2.339H2.394a2.34 2.34 0 0 1-2.34-2.34v-4.226z"/></svg>