<svg width="20" height="20" xmlns="http://www.w3.org/2000/svg"><path d="M6.87 9.062a5 5 0 1 1 3.095.935.671.671 0 0 1-.18.024C6.464 10.02 3 12.763 3 15.688c0 1.48 1 2.593 4.73 2.82a.75.75 0 1 1-.073 1.498c-5.005-.244-6.157-1.97-6.157-4.318 0-2.908 2.417-5.53 5.37-6.626zm3.478 3.796a1 1 0 1 1 1.403-1.403 3.993 3.993 0 0 1 1.059-.44 1 1 0 1 1 1.981-.001c.379.096.736.246 1.063.44a1 1 0 1 1 1.403 1.403c.197.33.347.69.443 1.072a1 1 0 1 1 0 1.96c-.096.38-.246.74-.441 1.069a1 1 0 0 1-1.407 1.407c-.33.196-.69.346-1.072.442a1 1 0 1 1-1.96-.001 3.993 3.993 0 0 1-1.069-.442 1 1 0 1 1-1.403-1.403 3.993 3.993 0 0 1-.439-1.06 1 1 0 1 1 0-1.985c.096-.376.245-.732.439-1.058zm5.972 2.051a2.517 2.517 0 1 0-5.034 0 2.517 2.517 0 0 0 5.034 0zM9.786 8.5a3.5 3.5 0 1 0 0-7 3.5 3.5 0 0 0 0 7z"/></svg>