<svg width="20" height="20" xmlns="http://www.w3.org/2000/svg"><path d="M7.25 12.106a.628.628 0 0 1-.3.069.653.653 0 0 1-.576-.345l-.047-.092-1.82-3.965c-.022-.047-.022-.092-.022-.138 0-.185.138-.324.323-.324.069 0 .138.023.207.07l2.143 1.521c.16.092.345.16.553.16a.91.91 0 0 0 .345-.068l10.05-4.472c-1.798-2.12-4.77-3.504-8.136-3.504-5.485 0-9.957 3.711-9.957 8.296 0 2.489 1.337 4.748 3.433 6.27a.68.68 0 0 1 .277.53.646.646 0 0 1-.047.207c-.16.621-.439 1.637-.439 1.682a.846.846 0 0 0-.047.254c0 .185.138.323.323.323.07 0 .138-.022.185-.07l2.166-1.267a1.1 1.1 0 0 1 .53-.16c.091 0 .207.022.298.047 1.014.298 2.121.46 3.25.46 5.486 0 9.957-3.71 9.957-8.296 0-1.383-.414-2.695-1.13-3.85L7.32 12.06l-.07.047z"/></svg>